<?xml version="1.0" encoding="UTF-8" standalone="no"?>
<svg
   xmlns:sketch="http://www.bohemiancoding.com/sketch/ns"
   xmlns:dc="http://purl.org/dc/elements/1.1/"
   xmlns:cc="http://creativecommons.org/ns#"
   xmlns:rdf="http://www.w3.org/1999/02/22-rdf-syntax-ns#"
   xmlns:svg="http://www.w3.org/2000/svg"
   xmlns="http://www.w3.org/2000/svg"
   id="svg36"
   xml:space="preserve"
   style="enable-background:new 0 0 586 559;"
   viewBox="0 0 586 559"
   y="0px"
   x="0px"
   version="1.1"><metadata
   id="metadata42"><rdf:RDF><cc:Work
       rdf:about=""><dc:format>image/svg+xml</dc:format><dc:type
         rdf:resource="http://purl.org/dc/dcmitype/StillImage" /><dc:title></dc:title></cc:Work></rdf:RDF></metadata><defs
   id="defs40" />
<style
   id="style10"
   type="text/css">
	.st0{fill:#FAFAFA;}
	.st1{fill:#F0F0F0;}
	.st2{fill:#FFFFFF;}
	.st3{fill:#E24329;}
	.st4{fill:#FCA326;}
	.st5{fill:#FC6D26;}
	.st6{fill:#8C929D;}
	.st7{fill:#2E2E2E;}
	.st8{fill:none;stroke:#FCA326;stroke-width:16;stroke-linecap:round;stroke-linejoin:round;stroke-miterlimit:10;}
	.st9{fill:none;stroke:#FC6D26;stroke-width:16;stroke-linecap:round;stroke-linejoin:round;stroke-miterlimit:10;}
	.st10{fill:none;stroke:#E24329;stroke-width:16;stroke-linecap:round;stroke-linejoin:round;stroke-miterlimit:10;}
	.st11{fill:none;stroke:#F0F0F0;stroke-miterlimit:10;}
	.st12{fill:#231F20;}
	.st13{fill:none;stroke:#231F20;stroke-width:16;stroke-linecap:round;stroke-linejoin:round;stroke-miterlimit:10;}
	.st14{display:none;}
	.st15{display:inline;opacity:0.1;fill:#E828E3;}
	.st16{display:inline;}
	.st17{opacity:0.1;fill:#E828E3;}
	.st18{font-family:'SourceSansPro-Semibold';}
	.st19{font-size:24px;}
	.st20{display:inline;fill:#DB3B21;}
	.st21{display:inline;fill:#FC6D26;}
	.st22{display:inline;fill:#2E2E2E;}
	.st23{display:inline;fill:#6E49CB;}
	.st24{display:inline;fill:#380D75;}
	.st25{display:inline;fill:#FCA121;}
	.st26{opacity:0.6;fill:none;stroke:#231F20;stroke-width:2;stroke-miterlimit:10;stroke-dasharray:12,6;}
	.st27{fill:none;stroke:#444444;stroke-width:1.5339;stroke-miterlimit:10;}
</style>
<g
   style="display:inline"
   id="logo_art">
	<path
   style="display:inline;stroke-width:1.66747"
   id="path12"
   d="m 583.19899,309.94064 -31.08485,-89.74117 c 0.0138,0.0404 0.0189,0.0823 0.0327,0.1227 -0.0155,-0.0468 -0.0241,-0.0936 -0.0379,-0.14046 -0.002,-0.003 -0.002,-0.005 -0.002,-0.008 0,-0.002 0,-0.003 0,-0.003 L 490.39912,42.082935 c -3.37561,-9.381437 -12.66369,-15.677704 -23.31235,-15.600211 -10.67966,0.05166 -19.71285,6.226846 -23.01612,15.737437 L 385.49701,211.25877 H 200.67745 L 141.99358,42.20886 c -3.29983,-9.502519 -12.33474,-15.676089 -23.01267,-15.727751 -0.0431,0 -0.0844,0 -0.12917,0 -10.51432,0 -19.82135,6.257521 -23.233123,15.743896 l -61.539353,177.927645 -0.0086,0.0226 c 0,0.002 0,0.003 0,0.005 -0.0155,0.0452 -0.02239,0.0904 -0.03789,0.13561 0.01378,-0.0404 0.01894,-0.0823 0.03272,-0.1227 L 2.8669692,309.94064 c -4.6931249,13.54828 0.3995615,28.27185 12.6757428,36.64266 L 284.9298,530.05973 c 0.0396,0.0275 0.0844,0.0436 0.124,0.071 0.1154,0.0775 0.22734,0.1566 0.34445,0.22925 -0.11022,-0.0694 -0.21355,-0.1453 -0.32206,-0.21634 0,0 0,-0.002 -0.002,-0.002 0.0172,0.0129 0.0379,0.021 0.0568,0.0323 0.0155,0.01 0.031,0.0161 0.0465,0.0258 0.002,0.002 0.003,0.003 0.007,0.005 0.41678,0.27122 0.84906,0.51985 1.29685,0.74748 0.062,0.0323 0.11711,0.0727 0.17911,0.10332 0.002,0 0.002,0.002 0.003,0.002 0.0379,0.0178 0.0723,0.0404 0.11022,0.0581 0.0293,0.0129 0.0603,0.021 0.0878,0.0339 0.0207,0.01 0.0431,0.0161 0.0637,0.0242 0.0499,0.0226 0.10505,0.0371 0.155,0.0614 0.23423,0.10493 0.48051,0.1905 0.72162,0.28252 0.22562,0.0872 0.44434,0.18889 0.67512,0.26477 0.0103,0.003 0.019,0.008 0.0293,0.0113 0.0379,0.0129 0.0723,0.0307 0.11195,0.0436 0.0482,0.0161 0.0947,0.0339 0.14294,0.0484 0.019,0.005 0.0379,0.008 0.0568,0.0129 0.0603,0.0178 0.12572,0.0258 0.186,0.042 0.0224,0.006 0.0482,0.01 0.0723,0.0161 0.32378,0.092 0.65962,0.15822 0.99373,0.22764 0.13089,0.0274 0.25662,0.0662 0.38923,0.0888 0.0189,0.003 0.0362,0.01 0.0568,0.0129 0.0431,0.008 0.0827,0.0226 0.12745,0.0291 0.0706,0.0113 0.1395,0.0323 0.21184,0.042 0.0568,0.008 0.11539,0.005 0.17222,0.0129 0.0103,0.002 0.019,0 0.0293,0.002 0.003,0 0.005,0 0.009,0 0.63551,0.0856 1.27963,0.1453 1.93581,0.1453 0.003,0 0.007,0 0.012,0 v 0 c 0.002,0 0.003,0 0.003,0 0,0 0.002,0 0.002,0 0.002,0 0.003,0 0.005,0 0.6579,0 1.30202,-0.0597 1.93925,-0.1453 0.002,0 0.005,0 0.007,0 0.0103,-0.002 0.0207,0 0.031,-0.002 0.0568,-0.008 0.11711,-0.005 0.17394,-0.0129 0.0723,-0.0113 0.14123,-0.0307 0.21356,-0.042 0.0431,-0.006 0.0827,-0.021 0.12573,-0.0291 0.0189,-0.003 0.0362,-0.01 0.0551,-0.0129 0.13433,-0.0242 0.2635,-0.063 0.39784,-0.0904 0.32895,-0.0678 0.65962,-0.13399 0.98168,-0.2244 0.0224,-0.006 0.0448,-0.008 0.0672,-0.0145 0.0637,-0.0178 0.12917,-0.0258 0.19289,-0.0436 0.0189,-0.006 0.0396,-0.008 0.0586,-0.0129 0.0499,-0.0145 0.0982,-0.0339 0.1464,-0.05 0.0379,-0.0129 0.0723,-0.0307 0.11022,-0.0436 0.0103,-0.003 0.0189,-0.008 0.0293,-0.0113 0.24456,-0.0807 0.47534,-0.18728 0.71473,-0.2793 0.22217,-0.0872 0.44951,-0.16467 0.66651,-0.26154 0.0534,-0.0242 0.11022,-0.0387 0.16189,-0.063 0.0207,-0.01 0.0448,-0.0161 0.0654,-0.0258 0.0293,-0.0129 0.0603,-0.021 0.0895,-0.0355 0.0396,-0.0194 0.0775,-0.042 0.11539,-0.0597 0,0 0.002,0 0.002,-0.002 0.0637,-0.0307 0.12055,-0.0743 0.18428,-0.10655 0.44434,-0.22602 0.8749,-0.47303 1.28996,-0.74263 0.0327,-0.021 0.0706,-0.0371 0.10506,-0.0597 0.009,-0.006 0.0189,-0.01 0.0276,-0.0161 0.0396,-0.0274 0.0861,-0.0452 0.12573,-0.0726 l 269.42879,-183.4796 c 12.2693,-8.36596 17.36198,-23.08953 12.66886,-36.63781 z M 467.25727,58.766427 520.09583,211.25877 H 414.41872 Z M 510.8422,237.04441 489.28138,262.94143 330.25936,453.93948 405.48197,237.04441 Z M 279.93528,523.61332 c 0,0 0,0 0,0 0.0138,0.0387 0.0362,0.0743 0.05,0.11463 -0.0138,-0.0404 -0.0362,-0.0759 -0.05,-0.11463 z M 255.81004,453.9524 75.325373,237.04441 v 0 H 180.69249 Z M 118.81385,58.764812 171.75058,211.25877 H 66.073459 Z M 31.718062,325.72651 c -2.610927,-1.78071 -3.692499,-4.924 -2.691873,-7.8106 L 52.217976,251.1997 222.15215,455.42799 Z M 284.45618,529.71909 c -0.0534,-0.0404 -0.10505,-0.084 -0.15672,-0.12593 -0.0103,-0.008 -0.0207,-0.0194 -0.0327,-0.0274 -0.10334,-0.0807 -0.20495,-0.16306 -0.30484,-0.24701 -0.19634,-0.15983 -0.38923,-0.32289 -0.57351,-0.49401 0.0155,0.0129 0.0327,0.0242 0.0482,0.0371 0.0207,0.0178 0.0431,0.0323 0.0637,0.05 0.39439,0.35356 0.80945,0.68614 1.24346,0.99288 0.005,0.003 0.009,0.008 0.0138,0.0113 0.0207,0.0145 0.0379,0.0323 0.0585,0.0484 -0.11883,-0.0807 -0.24283,-0.15821 -0.35995,-0.24539 z m 8.56819,-51.81828 -44.20149,-127.635 -39.20869,-113.2214 h 166.94263 z m 9.04696,51.4179 c -0.10333,0.0839 -0.20322,0.1679 -0.30828,0.24862 -0.0121,0.01 -0.0241,0.021 -0.0362,0.0307 -0.0534,0.0404 -0.10333,0.0839 -0.155,0.12431 -0.11367,0.0856 -0.23767,0.16305 -0.3565,0.24539 0.0207,-0.0145 0.0379,-0.0339 0.0603,-0.0468 0.003,-0.003 0.007,-0.006 0.0103,-0.01 0.43401,-0.30674 0.84734,-0.63608 1.23829,-0.98964 0.0155,-0.0145 0.0345,-0.0258 0.05,-0.0388 0.0207,-0.0177 0.0431,-0.0323 0.062,-0.05 -0.18256,0.16628 -0.37373,0.32773 -0.5649,0.48594 z M 554.35478,325.72167 363.94825,455.38763 533.93926,251.21585 557.03804,317.903 c 1.00235,2.89951 -0.0775,6.0428 -2.68326,7.81867 z"
   class="st2" />
</g>
<g
   class="st14"
   id="spacing_guides">
	<path
   d="m 0,0.5 v 124 H 586 V 0.5 Z"
   class="st15"
   sketch:type="MSShapeGroup"
   id="path40_63_" />
	<path
   d="m 0,435.5 v 124 h 586 v -124 z"
   class="st15"
   sketch:type="MSShapeGroup"
   id="path40_36_" />
	<path
   d="m 462.2,560 h 124 V 0 h -124 z"
   class="st15"
   sketch:type="MSShapeGroup"
   id="path40_25_" />
	<g
   id="g20"
   class="st16">
		<text
   id="text18"
   class="st18 st19"
   transform="translate(511.2881,283.332)">1x</text>
	</g>
	<g
   id="g24"
   class="st16">
		<text
   id="text22"
   class="st18 st19"
   transform="translate(281.2881,500.9979)">1x</text>
	</g>
	<g
   id="g28"
   class="st16">
		<text
   id="text26"
   class="st18 st19"
   transform="translate(281.2881,65.9981)">1x</text>
	</g>
	<path
   d="M 0,560 H 124 V 0 H 0 Z"
   class="st15"
   sketch:type="MSShapeGroup"
   id="path40_24_" />
	<g
   id="g33"
   class="st16">
		<text
   id="text31"
   class="st18 st19"
   transform="translate(51.2881,283.332)">1x</text>
	</g>
</g>
</svg>
